<?xml version="1.0" encoding="utf-8"?>
<!-- Generator: Adobe Illustrator 16.2.1, SVG Export Plug-In . SVG Version: 6.00 Build 0)  -->
<!DOCTYPE svg PUBLIC "-//W3C//DTD SVG 1.1//EN" "http://www.w3.org/Graphics/SVG/1.1/DTD/svg11.dtd">
<svg version="1.1" id="Layer_1" xmlns="http://www.w3.org/2000/svg" xmlns:xlink="http://www.w3.org/1999/xlink" x="0px" y="0px"
	 width="97.102px" height="97.102px" viewBox="0 0 97.102 97.102" enable-background="new 0 0 97.102 97.102" xml:space="preserve">
<rect x="13.184" y="32.175" fill="#FFFFFF" width="71" height="31"/>
<polygon fill="#9BD4B5" points="91.295,52.878 97.437,44.412 89.829,37.243 92.519,27.137 82.827,23.174 81.68,12.773 
	71.233,12.601 66.388,3.303 56.574,6.924 48.719,0 40.865,6.925 31.05,3.304 26.206,12.602 15.756,12.774 14.61,23.173 
	4.918,27.136 7.611,37.242 0,44.412 6.141,52.878 1.639,62.324 10.447,68 9.666,78.423 19.919,80.528 22.954,90.536 33.277,88.799 
	39.738,97.045 48.718,91.687 57.698,97.045 64.159,88.799 74.481,90.536 77.515,80.528 87.771,78.423 86.989,68 95.797,62.323 "/>
<g>
	<path fill="#FFFFFF" d="M23.965,58.001V35.756h3.961l3.432,8.713c0.66,1.716,1.75,4.587,2.376,6.501h0.066
		c-0.132-2.343-0.429-6.205-0.429-10.297v-4.917h3.795v22.245h-3.96l-3.399-8.449c-0.727-1.881-1.75-4.687-2.245-6.7h-0.066
		c0.099,2.245,0.264,5.677,0.264,10.133v5.017H23.965z"/>
	<path fill="#FFFFFF" d="M50.4,48.231h-5.083v6.007h5.743v3.763H40.993V35.756h9.67v3.763h-5.347v5.116H50.4V48.231z"/>
	<path fill="#FFFFFF" d="M56.405,58.001l-3.796-22.245h4.488l1.09,8.878c0.297,2.541,0.495,5.083,0.759,7.789h0.099
		c0.298-2.739,0.793-5.148,1.255-7.822l1.584-8.845h3.498l1.485,8.779c0.396,2.508,0.792,4.983,1.057,7.888h0.065
		c0.298-2.904,0.562-5.28,0.858-7.855l1.089-8.812h4.225l-3.927,22.245h-4.456l-1.32-7.294c-0.363-2.046-0.693-4.588-0.99-7.294
		h-0.065c-0.396,2.673-0.76,5.148-1.222,7.326l-1.485,7.262H56.405z"/>
</g>
<line fill="none" stroke="#FFFFFF" stroke-miterlimit="10" x1="20.7" y1="64.7" x2="76.7" y2="64.7"/>
</svg>
