<?xml version="1.0" encoding="utf-8"?>
<!-- Generator: Adobe Illustrator 16.2.1, SVG Export Plug-In . SVG Version: 6.00 Build 0)  -->
<!DOCTYPE svg PUBLIC "-//W3C//DTD SVG 1.1//EN" "http://www.w3.org/Graphics/SVG/1.1/DTD/svg11.dtd">
<svg version="1.1" id="Layer_1" xmlns="http://www.w3.org/2000/svg" xmlns:xlink="http://www.w3.org/1999/xlink" x="0px" y="0px"
	 width="140.136px" height="140.136px" viewBox="0 0 140.136 140.136" enable-background="new 0 0 140.136 140.136"
	 xml:space="preserve">
<g>
	<path fill="#CFE1E0" d="M70.067,8c34.225,0,62.068,27.844,62.068,62.068c0,34.225-27.844,62.068-62.068,62.068
		C35.844,132.136,8,104.292,8,70.068C8,35.844,35.844,8,70.067,8 M70.067,0C31.37,0,0,31.371,0,70.068
		c0,38.698,31.37,70.068,70.067,70.068c38.698,0,70.068-31.37,70.068-70.068C140.136,31.371,108.766,0,70.067,0L70.067,0z"/>
</g>
<g>
	<path fill-rule="evenodd" clip-rule="evenodd" fill="#CFE1E0" d="M136.854,48.904c-0.784-2.47-1.689-4.886-2.73-7.229H6.013
		c-1.041,2.344-1.946,4.76-2.73,7.229H136.854z"/>
	<path fill-rule="evenodd" clip-rule="evenodd" fill="#CFE1E0" d="M139.801,63.363c-0.234-2.449-0.596-4.86-1.076-7.229H1.411
		c-0.48,2.369-0.842,4.78-1.076,7.229H139.801z"/>
	<path fill-rule="evenodd" clip-rule="evenodd" fill="#CFE1E0" d="M0.014,70.592c0.283,38.455,31.532,69.544,70.054,69.544
		c38.522,0,69.771-31.089,70.055-69.544H0.014z"/>
</g>
</svg>
